<svg version="1.1" id="Layer_1" xmlns="http://www.w3.org/2000/svg" xmlns:xlink="http://www.w3.org/1999/xlink" x="0px" y="0px"
	 width="100%" viewBox="0 0 1200 1200" enable-background="new 0 0 1200 1200" xml:space="preserve">
<path fill="#774ED0" opacity="1.000000" stroke="none" 
	d="
M728.000000,1201.000000 
	C486.833344,1201.000000 246.166672,1200.989868 5.500040,1201.093506 
	C1.750815,1201.095093 0.906084,1200.249023 0.907021,1196.500000 
	C1.006199,799.500000 1.006199,402.500000 0.907021,5.500023 
	C0.906084,1.750933 1.750933,0.906086 5.500023,0.907022 
	C402.500000,1.006185 799.500000,1.006186 1196.500000,0.907022 
	C1200.249023,0.906086 1201.093994,1.750932 1201.093140,5.500023 
	C1200.993896,402.500000 1200.993896,799.500000 1201.093140,1196.500000 
	C1201.093994,1200.249023 1200.249390,1201.096680 1196.499878,1201.093994 
	C1040.500000,1200.984375 884.500000,1201.000000 728.000000,1201.000000 
z"/>
<path fill="#010101" opacity="1.000000" stroke="none" 
	d="
M592.788025,88.788956 
	C601.020874,80.538269 601.013672,80.545486 608.967041,88.498840 
	C719.147949,198.679199 829.314514,308.873779 939.592285,418.957123 
	C942.903503,422.262512 942.674683,423.877869 939.509216,427.038025 
	C838.082886,528.296936 736.767578,629.666992 635.359558,730.944275 
	C632.309326,733.990662 630.928406,737.007507 630.939331,741.394470 
	C631.080750,798.055603 631.031982,854.717285 631.033386,911.378784 
	C631.033508,917.993958 631.039246,917.996826 637.914307,917.997009 
	C681.910339,917.997864 725.906616,918.068604 769.901917,917.893738 
	C774.624451,917.875000 776.166382,919.020386 776.072693,923.922974 
	C775.766968,939.915649 775.705994,955.924072 776.100464,971.912903 
	C776.231689,977.231567 774.480042,978.136841 769.626160,978.116577 
	C725.630859,977.932922 681.634583,978.008362 637.638550,978.009583 
	C631.035522,978.009766 631.033203,978.013611 631.033142,984.825684 
	C631.032471,1028.821655 630.959717,1072.817993 631.139404,1116.813232 
	C631.158630,1121.524536 630.082825,1123.078247 625.150574,1122.984009 
	C608.824707,1122.671753 592.487122,1122.725586 576.158691,1122.962769 
	C571.944214,1123.024048 570.869019,1121.732422 570.881653,1117.623413 
	C571.018372,1073.127808 570.864929,1028.631226 571.103516,984.136536 
	C571.131714,978.874329 569.567566,977.879028 564.670959,977.899658 
	C520.342468,978.086182 476.012512,977.929626 431.684082,978.124390 
	C426.925781,978.145264 425.881226,976.671875 425.946594,972.225037 
	C426.186615,955.896729 426.174591,939.560913 425.950470,923.232178 
	C425.893188,919.057495 427.148956,917.899841 431.287903,917.912537 
	C475.783447,918.048706 520.280029,917.900818 564.774841,918.127014 
	C569.985413,918.153442 571.091003,916.638062 571.076172,911.688599 
	C570.905518,854.860901 570.925659,798.032410 571.052124,741.204529 
	C571.061401,737.027893 569.846680,734.106506 566.887512,731.151367 
	C465.356720,629.761292 363.923035,528.273926 262.386444,426.889557 
	C259.414093,423.921692 258.951111,422.437988 262.220459,419.174774 
	C372.399658,309.202698 482.460663,199.112198 592.788025,88.788956 
z"/>
<path fill="#774ED0" opacity="1.000000" stroke="none" 
	d="
M794.813416,359.186646 
	C815.096252,379.467712 835.071838,399.556763 855.226318,419.464661 
	C858.063660,422.267303 857.927917,423.758484 855.175232,426.506592 
	C771.561035,509.982239 688.018677,593.529968 604.547791,677.148987 
	C601.794250,679.907410 600.317810,679.984680 597.513367,677.174988 
	C514.047424,593.551147 430.502869,510.005646 346.893005,426.525696 
	C344.205170,423.842010 343.878784,422.386322 346.765198,419.505676 
	C430.393616,336.044128 513.941284,252.501617 597.402405,168.872787 
	C600.443481,165.825653 601.956848,166.202484 604.794128,169.047119 
	C667.988953,232.405075 731.285706,295.661346 794.813416,359.186646 
z"/>
</svg>